HIERARCHY
ROOT root
{
  OFFSET -63.9245 92.6846 28.11
  CHANNELS 6 Xposition Yposition Zposition Zrotation Xrotation Yrotation
  JOINT lfemur
  {
    OFFSET 6.18079 -8.58223 4.6309
    CHANNELS 6 Xposition Yposition Zposition Zrotation Xrotation Yrotation
    JOINT ltibia
    {
      OFFSET -1.0381e-005 -39.2652 0
      CHANNELS 6 Xposition Yposition Zposition Zrotation Xrotation Yrotation
      JOINT lfoot
      {
        OFFSET -0.00334357 -31.3814 0
        CHANNELS 6 Xposition Yposition Zposition Zrotation Xrotation Yrotation
        End ltoes
        {
          OFFSET 0 0 0
        }
      }
    }
  }
}
MOTION
Frames:	53
Frame Time:	0.00833333
0.957123 81.0621 29.76 -7.34844 0.223795 94.8282 6.18079 -8.58223 4.6309 -1.98245 -41.1578 -2.25594 -1.0381e-005 -39.2652 0 -0 69.8786 0 -0.00334357 -31.3814 0 -177.701 -65.9709 -177.483 
1.30424 81.1558 29.8346 -7.75433 0.426151 94.9245 6.18079 -8.58223 4.6309 -2.19071 -41.1928 -2.42787 -1.0381e-005 -39.2652 0 -0 69.7405 0 -0.00334357 -31.3814 0 -178.081 -65.929 -177.898 
1.55114 81.2828 29.8582 -8.02487 0.391905 94.9276 6.18079 -8.58223 4.6309 -2.42889 -41.1746 -2.56836 -1.0381e-005 -39.2652 0 -0 69.4213 0 -0.00334357 -31.3814 0 -178.382 -65.9904 -178.229 
1.8314 81.4996 29.9185 -8.2676 0.539103 95.0155 6.18079 -8.58223 4.6309 -2.64076 -41.0606 -2.6799 -1.0381e-005 -39.2652 0 -0 68.9111 0 -0.00334357 -31.3814 0 -178.6 -66.1434 -178.469 
2.10529 81.7304 29.9707 -8.5883 0.7337 95.041 6.18079 -8.58223 4.6309 -2.76997 -40.8084 -2.76492 -1.0381e-005 -39.2652 0 -0 68.1999 0 -0.00334357 -31.3814 0 -178.725 -66.3761 -178.609 
2.31698 82.2221 30.0188 -8.75454 0.843678 95.0956 6.18079 -8.58223 4.6309 -2.7721 -40.362 -2.80879 -1.0381e-005 -39.2652 0 -0 67.247 0 -0.00334357 -31.3814 0 -178.733 -66.6975 -178.62 
2.52098 82.6053 30.0113 -8.65971 0.593491 95.1538 6.18079 -8.58223 4.6309 -2.68732 -39.759 -2.81573 -1.0381e-005 -39.2652 0 -0 66.0704 0 -0.00334357 -31.3814 0 -178.629 -67.1101 -178.512 
2.71791 83.0264 30.0599 -8.97712 0.686853 95.1889 6.18079 -8.58223 4.6309 -2.58557 -39.0973 -2.81612 -1.0381e-005 -39.2652 0 -0 64.7482 0 -0.00334357 -31.3814 0 -178.455 -67.5925 -178.329 
2.89779 83.5553 30.1212 -9.21308 0.67776 95.2526 6.18079 -8.58223 4.6309 -2.53529 -38.4743 -2.83913 -1.0381e-005 -39.2652 0 -0 63.3588 0 -0.00334357 -31.3814 0 -178.255 -68.1233 -178.12 
3.07071 84.0616 30.1271 -9.61263 0.839416 95.2684 6.18079 -8.58223 4.6309 -2.58416 -37.9328 -2.89612 -1.0381e-005 -39.2652 0 -0 61.9055 0 -0.00334357 -31.3814 0 -178.051 -68.7104 -177.908 
3.23555 84.6119 30.1893 -9.84399 0.760526 95.4184 6.18079 -8.58223 4.6309 -2.68494 -37.4151 -2.96972 -1.0381e-005 -39.2652 0 -0 60.3523 0 -0.00334357 -31.3814 0 -177.807 -69.3604 -177.657 
3.39098 85.1944 30.2378 -10.1148 0.799984 95.5482 6.18079 -8.58223 4.6309 -2.76292 -36.8686 -3.04549 -1.0381e-005 -39.2652 0 -0 58.7187 0 -0.00334357 -31.3814 0 -177.483 -70.0501 -177.323 
3.55361 85.7956 30.2785 -10.4743 0.726099 95.7286 6.18079 -8.58223 4.6309 -2.74375 -36.2408 -3.10934 -1.0381e-005 -39.2652 0 -0 57.0239 0 -0.00334357 -31.3814 0 -177.033 -70.756 -176.857 
3.71042 86.4181 30.3225 -10.7767 0.657266 95.873 6.18079 -8.58223 4.6309 -2.60962 -35.5024 -3.17985 -1.0381e-005 -39.2652 0 -0 55.2526 0 -0.00334357 -31.3814 0 -176.434 -71.4788 -176.24 
3.8093 87.0317 30.3091 -10.6523 0.0252509 95.9891 6.18079 -8.58223 4.6309 -2.39863 -34.6865 -3.25691 -1.0381e-005 -39.2652 0 -0 53.4012 0 -0.00334357 -31.3814 0 -175.685 -72.227 -175.47 
3.96405 87.6464 30.3466 -10.91 -0.0367149 96.1628 6.18079 -8.58223 4.6309 -2.12297 -33.8343 -3.29985 -1.0381e-005 -39.2652 0 -0 51.5071 0 -0.00334357 -31.3814 0 -174.759 -72.9875 -174.521 
4.12859 88.2498 30.4216 -11.1944 -0.0660782 96.3121 6.18079 -8.58223 4.6309 -1.79791 -32.9871 -3.26964 -1.0381e-005 -39.2652 0 -0 49.6074 0 -0.00334357 -31.3814 0 -173.625 -73.747 -173.362 
4.28564 88.8633 30.4778 -11.5069 -0.179509 96.432 6.18079 -8.58223 4.6309 -1.39803 -32.141 -3.14447 -1.0381e-005 -39.2652 0 -0 47.6799 0 -0.00334357 -31.3814 0 -172.197 -74.5079 -171.907 
4.49899 89.4238 30.5605 -11.4255 -0.709108 96.5324 6.18079 -8.58223 4.6309 -0.931351 -31.2786 -2.9524 -1.0381e-005 -39.2652 0 -0 45.7155 0 -0.00334357 -31.3814 0 -170.447 -75.2684 -170.128 
4.64492 89.9674 30.6019 -11.6742 -0.846767 96.5941 6.18079 -8.58223 4.6309 -0.46346 -30.4206 -2.72902 -1.0381e-005 -39.2652 0 -0 43.771 0 -0.00334357 -31.3814 0 -168.45 -76.0094 -168.106 
4.78354 90.4584 30.666 -11.8188 -1.04933 96.681 6.18079 -8.58223 4.6309 -0.057129 -29.5881 -2.50836 -1.0381e-005 -39.2652 0 -0 41.903 0 -0.00334357 -31.3814 0 -166.31 -76.7148 -165.948 
4.91877 90.9472 30.7198 -11.973 -1.1927 96.7203 6.18079 -8.58223 4.6309 0.260426 -28.7755 -2.30604 -1.0381e-005 -39.2652 0 -0 40.0942 0 -0.00334357 -31.3814 0 -164.051 -77.4061 -163.679 
4.9957 91.409 30.7318 -12.2901 -1.27188 96.7375 6.18079 -8.58223 4.6309 0.526128 -27.9752 -2.1015 -1.0381e-005 -39.2652 0 -0 38.3251 0 -0.00334357 -31.3814 0 -161.578 -78.0797 -161.201 
5.11951 91.8204 30.7852 -12.2813 -1.44701 96.782 6.18079 -8.58223 4.6309 0.774661 -27.2056 -1.87369 -1.0381e-005 -39.2652 0 -0 36.6497 0 -0.00334357 -31.3814 0 -158.869 -78.6851 -158.488 
5.25861 92.1664 30.8393 -12.2962 -1.59535 96.803 6.18079 -8.58223 4.6309 1.03983 -26.485 -1.60197 -1.0381e-005 -39.2652 0 -0 35.1216 0 -0.00334357 -31.3814 0 -155.949 -79.1719 -155.564 
5.36778 92.4774 30.9043 -12.3006 -1.71326 96.9046 6.18079 -8.58223 4.6309 1.32996 -25.7928 -1.29662 -1.0381e-005 -39.2652 0 -0 33.7179 0 -0.00334357 -31.3814 0 -152.92 -79.5516 -152.53 
5.55475 92.7495 30.9861 -12.3898 -1.92567 96.9678 6.18079 -8.58223 4.6309 1.6259 -25.1277 -0.963712 -1.0381e-005 -39.2652 0 -0 32.4223 0 -0.00334357 -31.3814 0 -149.821 -79.8416 -149.426 
5.67436 93.0063 31.0373 -12.4424 -1.98551 97.0118 6.18079 -8.58223 4.6309 1.91968 -24.5355 -0.576441 -1.0381e-005 -39.2652 0 -0 31.2989 0 -0.00334357 -31.3814 0 -146.683 -80.0005 -146.28 
5.76507 93.2095 31.0647 -12.4997 -2.16453 97.0466 6.18079 -8.58223 4.6309 2.20385 -24.0623 -0.1078 -1.0381e-005 -39.2652 0 -0 30.4117 0 -0.00334357 -31.3814 0 -143.595 -79.9867 -143.174 
5.8919 93.354 31.1166 -12.5551 -2.20685 97.0966 6.18079 -8.58223 4.6309 2.47976 -23.7394 0.418091 -1.0381e-005 -39.2652 0 -0 29.8388 0 -0.00334357 -31.3814 0 -140.922 -79.7857 -140.473 
6.02601 93.4607 31.1661 -12.5813 -2.38468 97.0852 6.18079 -8.58223 4.6309 2.75352 -23.5352 0.998732 -1.0381e-005 -39.2652 0 -0 29.5256 0 -0.00334357 -31.3814 0 -138.704 -79.4326 -138.217 
6.14149 93.4861 31.225 -12.6615 -2.35695 97.1133 6.18079 -8.58223 4.6309 3.02395 -23.3995 1.69317 -1.0381e-005 -39.2652 0 -0 29.3374 0 -0.00334357 -31.3814 0 -136.572 -78.9521 -136.037 
6.24896 93.5138 31.2901 -12.7423 -2.45814 97.1105 6.18079 -8.58223 4.6309 3.28747 -23.2809 2.55947 -1.0381e-005 -39.2652 0 -0 29.1391 0 -0.00334357 -31.3814 0 -134.19 -78.3572 -133.595 
6.35734 93.5409 31.3218 -12.9598 -2.42355 97.0433 6.18079 -8.58223 4.6309 3.55475 -23.1834 3.69678 -1.0381e-005 -39.2652 0 -0 28.9355 0 -0.00334357 -31.3814 0 -131.449 -77.5797 -130.777 
6.449 93.5646 31.3737 -13.0354 -2.30231 96.9887 6.18079 -8.58223 4.6309 3.82603 -23.1218 5.04693 -1.0381e-005 -39.2652 0 -0 28.7851 0 -0.00334357 -31.3814 0 -128.74 -76.6252 -127.973 
6.56855 93.6035 31.4281 -13.1895 -2.26649 96.8927 6.18079 -8.58223 4.6309 4.0787 -23.0635 6.43067 -1.0381e-005 -39.2652 0 -0 28.6333 0 -0.00334357 -31.3814 0 -126.362 -75.6177 -125.495 
6.66569 93.6425 31.4877 -13.2063 -2.14132 96.8235 6.18079 -8.58223 4.6309 4.28777 -22.9821 7.66802 -1.0381e-005 -39.2652 0 -0 28.4257 0 -0.00334357 -31.3814 0 -124.449 -74.6913 -123.49 
6.77802 93.6639 31.5566 -13.2284 -2.10472 96.665 6.18079 -8.58223 4.6309 4.41409 -22.8821 8.69846 -1.0381e-005 -39.2652 0 -0 28.1093 0 -0.00334357 -31.3814 0 -122.847 -73.8898 -121.81 
6.87719 93.6656 31.7153 -13.7149 -1.58258 96.6612 6.18079 -8.58223 4.6309 4.48195 -22.7776 9.62229 -1.0381e-005 -39.2652 0 -0 27.726 0 -0.00334357 -31.3814 0 -121.424 -73.1468 -120.317 
6.90643 93.6357 31.789 -13.7379 -1.55779 96.7682 6.18079 -8.58223 4.6309 4.55925 -22.6601 10.5001 -1.0381e-005 -39.2652 0 -0 27.3637 0 -0.00334357 -31.3814 0 -120.268 -72.4369 -119.091 
7.00803 93.6622 31.821 -13.7344 -1.56713 96.6144 6.18079 -8.58223 4.6309 4.71299 -22.5198 11.3919 -1.0381e-005 -39.2652 0 -0 27.1103 0 -0.00334357 -31.3814 0 -119.463 -71.737 -118.212 
7.09382 93.6792 31.855 -13.751 -1.55714 96.5414 6.18079 -8.58223 4.6309 4.97635 -22.3357 12.3158 -1.0381e-005 -39.2652 0 -0 26.9996 0 -0.00334357 -31.3814 0 -119.078 -71.0539 -117.742 
7.27919 93.682 31.8336 -13.6669 -1.65084 96.0378 6.18079 -8.58223 4.6309 5.30611 -22.1196 13.2383 -1.0381e-005 -39.2652 0 -0 26.9813 0 -0.00334357 -31.3814 0 -118.982 -70.4012 -117.556 
7.3809 93.6526 31.8543 -13.6808 -1.74247 95.8581 6.18079 -8.58223 4.6309 5.65607 -21.9105 14.1424 -1.0381e-005 -39.2652 0 -0 27.0171 0 -0.00334357 -31.3814 0 -118.982 -69.7659 -117.462 
7.47087 93.6238 31.884 -13.7155 -1.73757 95.7633 6.18079 -8.58223 4.6309 5.98282 -21.7473 15.0121 -1.0381e-005 -39.2652 0 -0 27.0691 0 -0.00334357 -31.3814 0 -118.91 -69.1336 -117.296 
7.55193 93.5905 31.9108 -13.7209 -1.74892 95.6395 6.18079 -8.58223 4.6309 6.27845 -21.6673 15.854 -1.0381e-005 -39.2652 0 -0 27.1518 0 -0.00334357 -31.3814 0 -118.768 -68.4928 -117.058 
7.5876 93.5634 31.9587 -13.7445 -1.90011 95.4547 6.18079 -8.58223 4.6309 6.56937 -21.6407 16.6745 -1.0381e-005 -39.2652 0 -0 27.2773 0 -0.00334357 -31.3814 0 -118.63 -67.8534 -116.822 
7.65855 93.5273 31.9855 -13.7704 -1.89645 95.3497 6.18079 -8.58223 4.6309 6.86263 -21.6059 17.4573 -1.0381e-005 -39.2652 0 -0 27.4035 0 -0.00334357 -31.3814 0 -118.454 -67.2338 -116.551 
7.73136 93.5008 32.0203 -13.7743 -1.91216 95.1919 6.18079 -8.58223 4.6309 7.16166 -21.5027 18.1847 -1.0381e-005 -39.2652 0 -0 27.4885 0 -0.00334357 -31.3814 0 -118.202 -66.6517 -116.213 
7.79667 93.4918 32.052 -13.7941 -1.88387 95.097 6.18079 -8.58223 4.6309 7.50365 -21.2817 18.8735 -1.0381e-005 -39.2652 0 -0 27.5217 0 -0.00334357 -31.3814 0 -117.819 -66.0777 -115.75 
7.95844 93.4415 32.095 -13.5806 -1.81023 95.0241 6.18079 -8.58223 4.6309 7.87046 -20.9883 19.5249 -1.0381e-005 -39.2652 0 -0 27.5252 0 -0.00334357 -31.3814 0 -117.349 -65.5122 -115.206 
7.92847 93.4528 32.1405 -13.7138 -1.74762 94.8626 6.18079 -8.58223 4.6309 8.18377 -20.7048 20.0979 -1.0381e-005 -39.2652 0 -0 27.5062 0 -0.00334357 -31.3814 0 -116.895 -65.0189 -114.692 
8.09238 93.3693 32.2172 -13.2367 -1.98929 94.7919 6.18079 -8.58223 4.6309 8.36946 -20.5126 20.5522 -1.0381e-005 -39.2652 0 -0 27.4716 0 -0.00334357 -31.3814 0 -116.551 -64.6628 -114.305 
